<svg id="Layer_1" data-name="Layer 1" xmlns="http://www.w3.org/2000/svg" viewBox="0 0 98 98"><defs><style>.cls-1{fill:#55acee;}</style></defs><title>twitter-icon</title><path class="cls-1" d="M78.6,1H21.4A20.4,20.4,0,0,0,1,21.4V78.6A20.4,20.4,0,0,0,21.4,99H78.6A20.4,20.4,0,0,0,99,78.6V21.4A20.4,20.4,0,0,0,78.6,1ZM78,38.7c0.9,18.9-13.2,39.9-38.1,39.9a37.9,37.9,0,0,1-20.5-6A27,27,0,0,0,39.2,67a13.4,13.4,0,0,1-12.5-9.3,13.5,13.5,0,0,0,6.1-.2A13.4,13.4,0,0,1,22,44.2a13.3,13.3,0,0,0,6.1,1.7A13.4,13.4,0,0,1,23.9,28,38.1,38.1,0,0,0,51.5,42,13.4,13.4,0,0,1,74.4,29.7a26.9,26.9,0,0,0,8.5-3.3A13.5,13.5,0,0,1,77,33.9a26.9,26.9,0,0,0,7.7-2.1A27.2,27.2,0,0,1,78,38.7Z" transform="translate(-1 -1)"/></svg>